<?xml version="1.0" standalone="no"?>
<!DOCTYPE svg PUBLIC "-//W3C//DTD SVG 20010904//EN"
 "http://www.w3.org/TR/2001/REC-SVG-20010904/DTD/svg10.dtd">
<svg version="1.0" xmlns="http://www.w3.org/2000/svg"
 width="2000.000000pt" height="2000.000000pt" viewBox="0 0 2000.000000 2000.000000"
 preserveAspectRatio="xMidYMid meet">
<metadata>
Created by potrace 1.16, written by Peter Selinger 2001-2019
</metadata>
<g transform="translate(0.000000,2000.000000) scale(0.100000,-0.100000)"
fill="#000000" stroke="none">
<path d="M9165 11712 c-126 -8 -234 -18 -239 -23 -6 -5 -5 -104 3 -251 7 -134
12 -322 13 -419 0 -97 4 -182 8 -189 13 -21 27 -3 40 50 14 59 52 95 145 140
71 34 91 37 167 26 44 -6 67 -4 100 8 39 15 47 15 87 1 56 -19 50 -20 105 16
l47 32 59 -18 c47 -14 64 -15 91 -6 51 18 65 14 119 -34 50 -45 100 -60 115
-34 11 16 -41 84 -150 199 -56 58 -142 152 -192 210 -50 58 -135 150 -190 206
l-98 101 -230 -15z"/>
<path d="M10646 11638 c-50 -167 -97 -323 -106 -348 -5 -14 -15 -50 -24 -80
-8 -30 -24 -86 -35 -125 -11 -38 -19 -71 -17 -72 2 -2 13 12 24 31 15 26 32
38 64 47 24 7 59 27 79 46 l36 34 57 -31 c32 -16 64 -30 71 -30 7 0 33 -9 59
-20 41 -19 48 -19 74 -6 31 16 44 37 70 116 10 30 47 130 82 222 35 92 61 170
58 173 -4 4 -447 133 -463 135 -1 0 -13 -42 -29 -92z"/>
<path d="M12275 11723 c-72 -10 -226 -54 -303 -87 -214 -92 -366 -227 -496
-441 -77 -126 -77 -148 -5 -213 29 -26 55 -48 59 -50 5 -2 24 11 43 27 19 17
40 31 47 31 31 0 98 -50 110 -82 26 -70 30 -79 45 -84 21 -9 52 22 80 77 29
56 211 245 283 293 81 54 165 76 286 76 148 0 271 -38 393 -121 l42 -29 200
116 c111 64 201 119 201 124 0 16 -117 115 -204 172 -149 98 -284 155 -434
184 -68 13 -273 17 -347 7z"/>
<path d="M8202 11711 c-6 -4 -70 -126 -143 -271 l-131 -265 5 -67 c5 -74 26
-118 57 -118 10 0 36 11 56 25 32 22 47 25 125 25 78 0 90 -2 101 -20 16 -25
54 -26 94 -1 26 16 53 63 144 245 65 129 110 231 107 240 -8 20 -400 216 -415
207z"/>
<path d="M6827 11698 c-21 -16 -277 -573 -277 -603 0 -27 24 -49 72 -64 21 -7
40 -17 43 -22 4 -5 50 -9 103 -9 53 0 104 -4 111 -9 8 -6 29 -33 46 -62 16
-28 35 -52 40 -52 6 0 25 30 43 67 61 126 242 544 242 560 0 9 -10 22 -23 31
-18 11 -374 175 -382 175 -1 0 -9 -6 -18 -12z"/>
<path d="M13900 11344 l0 -166 25 6 c18 5 25 2 25 -9 0 -18 -2 -18 49 0 l41
14 -25 -49 c-30 -58 -30 -60 -9 -60 10 0 14 -6 11 -14 -4 -11 8 -20 44 -31
l50 -17 -40 -30 c-41 -30 -45 -48 -13 -48 15 0 15 -2 2 -10 -8 -5 -27 -10 -42
-10 -32 0 -33 -3 -13 -60 20 -55 20 -55 -15 -30 -16 12 -30 19 -30 16 0 -3 18
-43 40 -88 l39 -83 -65 70 -65 70 4 -265 c4 -274 10 -320 60 -456 83 -226 243
-403 451 -500 330 -152 767 -101 1011 118 218 195 326 391 354 640 7 58 11
314 11 628 l0 530 -242 -2 -243 -3 -6 -570 -5 -570 -27 -80 c-51 -151 -127
-249 -235 -302 -53 -26 -65 -28 -177 -28 -97 1 -131 5 -178 22 -112 42 -204
133 -242 243 -42 117 -46 168 -52 731 l-6 546 -105 7 c-58 3 -167 6 -244 6
l-138 0 0 -166z"/>
<path d="M4843 11485 c-209 -38 -394 -135 -543 -284 -123 -124 -203 -260 -256
-438 -38 -126 -45 -347 -15 -480 84 -383 359 -669 740 -770 133 -36 343 -38
474 -5 195 48 357 142 492 284 93 97 142 168 195 281 66 145 84 230 85 407 0
85 -4 172 -8 193 l-8 38 -122 -2 c-182 -3 -205 -7 -225 -37 -11 -17 -16 -44
-15 -85 l1 -60 -179 5 c-174 5 -180 5 -194 -15 -8 -12 -15 -33 -15 -48 0 -14
-9 -34 -20 -44 -11 -10 -23 -34 -26 -54 -4 -19 -13 -41 -19 -48 -7 -7 -16 -29
-20 -50 -3 -21 -18 -50 -32 -65 -24 -25 -29 -26 -97 -22 -156 10 -177 14 -174
32 3 12 -9 24 -37 37 -65 33 -58 78 37 218 55 81 79 138 80 194 1 54 -20 78
-77 89 -30 5 -33 9 -25 24 6 10 10 47 10 82 0 62 1 64 36 83 29 15 39 17 55 7
22 -14 969 -18 969 -4 0 5 -16 35 -36 67 -210 349 -633 542 -1031 470z"/>
<path d="M16458 11470 c-119 -3 -218 -7 -221 -10 -2 -3 -6 -444 -8 -980 l-4
-975 236 -3 236 -2 6 286 c4 158 7 424 7 591 l0 303 132 -157 c815 -975 849
-1013 876 -1013 15 0 125 -3 245 -7 l217 -6 0 992 0 992 -242 -7 c-134 -3
-244 -7 -245 -9 -2 -1 -3 -269 -3 -595 -1 -499 -3 -591 -14 -579 -8 8 -199
241 -427 519 -540 661 -548 670 -562 668 -7 -1 -110 -5 -229 -8z"/>
<path d="M1680 11457 c0 -5 147 -223 327 -485 180 -262 365 -533 412 -602 l86
-125 -4 -372 -3 -373 246 0 246 0 0 371 0 370 382 547 c210 301 401 575 426
610 l44 62 -289 0 -288 0 -53 -83 c-188 -291 -458 -696 -464 -694 -6 2 -352
520 -473 710 l-50 78 -272 -2 c-150 -2 -273 -7 -273 -12z"/>
<path d="M13777 11292 c-42 -26 -43 -47 -5 -100 38 -52 58 -61 82 -36 14 13
16 27 10 73 -10 84 -30 98 -87 63z"/>
<path d="M7774 11046 c-72 -15 -84 -21 -84 -46 0 -15 15 -24 66 -39 36 -11 72
-17 78 -15 19 7 59 83 52 99 -6 17 -28 17 -112 1z"/>
<path d="M8179 10850 c-69 -12 -87 -25 -99 -73 -7 -23 -18 -52 -26 -65 l-15
-23 -33 21 c-71 43 -82 20 -89 -180 -6 -143 -28 -254 -67 -331 -55 -107 -182
-195 -317 -219 -140 -25 -306 30 -399 133 -74 82 -106 171 -119 327 -7 82 -55
196 -104 249 -29 31 -99 51 -175 51 -24 0 -57 7 -72 15 -16 8 -41 15 -56 15
-15 0 -39 5 -53 12 -38 17 -45 0 -45 -123 0 -390 96 -703 266 -859 269 -249
651 -339 982 -231 238 78 396 202 516 404 99 165 131 301 145 599 12 258 0
313 -59 270 -34 -26 -48 -27 -69 -8 -22 20 -58 25 -112 16z"/>
<path d="M9155 10797 c-85 -54 -92 -60 -136 -127 -73 -110 -70 -82 -62 -656
l6 -514 236 2 236 3 3 585 2 584 -25 53 c-33 67 -79 107 -114 98 -31 -7 -39
-7 -71 -1 -17 3 -41 -6 -75 -27z"/>
<path d="M10541 10788 c-8 -31 -20 -49 -43 -63 -21 -13 -39 -38 -54 -75 -20
-48 -23 -73 -24 -202 0 -82 -3 -148 -6 -148 -7 0 -72 72 -196 216 -53 60 -108
118 -123 128 -15 10 -61 49 -102 87 -77 72 -98 80 -148 57 -19 -9 -37 -8 -79
2 -50 12 -58 11 -110 -11 l-57 -23 -54 27 c-86 42 -95 39 -95 -32 l0 -59 88
-109 c48 -60 142 -176 209 -258 216 -265 455 -559 563 -693 l105 -131 237 0
c177 -1 239 2 244 11 8 13 6 395 -5 955 -4 237 -9 325 -18 334 -20 20 -118 27
-161 12 -48 -17 -74 -16 -98 2 -37 28 -61 19 -73 -27z"/>
<path d="M11349 10805 c-19 -49 -16 -352 5 -459 63 -315 206 -547 431 -694
159 -105 333 -152 560 -152 387 0 628 90 873 324 l82 79 0 378 0 379 -172 0
c-95 0 -325 -3 -510 -7 l-338 -6 0 -184 0 -183 295 0 295 0 0 -93 0 -93 -79
-48 c-43 -26 -114 -59 -157 -74 -70 -23 -95 -26 -214 -27 -115 0 -145 3 -205
23 -163 55 -284 159 -356 308 -39 80 -43 95 -47 186 -4 81 -2 98 9 96 9 -2 15
7 17 24 3 27 -27 58 -58 58 -9 0 -34 18 -55 41 -50 52 -118 99 -142 99 -10 0
-31 -9 -48 -20 -16 -11 -38 -20 -48 -20 -22 0 -103 54 -116 78 -8 15 -11 13
-22 -13z"/>
<path d="M8865 10730 c-49 -33 -89 -62 -88 -66 5 -16 96 -75 108 -70 7 2 37
39 65 81 86 127 53 148 -85 55z"/>
<path d="M5391 10671 c-6 -10 -9 -20 -7 -22 9 -11 15 -59 7 -59 -5 0 -23 12
-40 26 l-31 26 0 -26 c0 -46 49 -66 158 -66 79 0 95 3 112 20 24 24 26 67 4
98 -14 20 -23 22 -104 22 -77 0 -91 -3 -99 -19z"/>
<path d="M11910 10661 c-15 -4 -24 -14 -24 -24 2 -22 63 -117 75 -117 22 0
134 104 134 124 0 19 -6 21 -80 23 -44 1 -91 -2 -105 -6z"/>
<path d="M7086 10606 c-39 -47 -44 -67 -21 -86 12 -10 28 -10 72 -1 82 16 94
44 44 99 -17 17 -37 32 -45 32 -8 0 -31 -20 -50 -44z"/>
<path d="M18593 9123 c-54 -3 -85 -8 -93 -18 -18 -22 -3 -35 44 -35 l43 0 -1
-112 c-1 -110 0 -113 22 -116 22 -3 22 -2 22 111 l0 114 51 6 c60 7 67 12 53
35 -12 19 -23 20 -141 15z"/>
<path d="M18790 9115 c-10 -12 -11 -48 -7 -141 5 -131 14 -157 43 -133 14 11
15 26 10 94 l-7 80 26 -34 c14 -19 25 -38 25 -42 0 -13 33 -20 44 -9 6 6 16
28 22 48 12 36 12 36 13 -31 1 -73 13 -107 36 -107 12 0 15 23 15 135 0 116
-2 135 -17 144 -27 15 -48 -3 -72 -60 l-23 -52 -39 62 c-41 65 -49 70 -69 46z"/>
<path d="M11899 9023 c-10 -12 -15 -61 -17 -187 -4 -195 10 -319 39 -356 l19
-25 20 24 c14 17 20 38 20 75 0 51 12 76 36 76 7 0 16 -10 20 -22 11 -38 74
-118 106 -134 38 -20 68 -10 68 22 0 25 -40 83 -109 156 l-34 37 26 50 c30 54
36 111 13 111 -16 0 -68 -40 -103 -80 l-22 -25 -1 64 c0 123 -29 231 -60 231
-4 0 -14 -7 -21 -17z"/>
<path d="M17277 9022 c-27 -30 -147 -392 -162 -488 -5 -36 -3 -45 17 -63 40
-38 61 -25 73 46 7 35 14 66 18 69 3 3 42 3 87 -1 l80 -7 21 -48 c28 -65 49
-83 81 -71 39 15 40 36 8 104 -38 80 -126 341 -135 401 -10 67 -54 95 -88 58z"/>
<path d="M17799 9003 c-6 -16 -13 -57 -16 -93 l-6 -66 -61 4 c-81 5 -120 -20
-152 -98 -48 -115 -19 -231 68 -276 37 -19 102 -8 139 24 28 23 31 23 48 8 42
-38 49 -18 58 177 6 136 -7 288 -29 330 -13 26 -37 21 -49 -10z m-32 -241 c7
-4 13 -34 14 -70 2 -59 0 -65 -32 -98 -55 -57 -69 -61 -97 -28 -22 25 -24 34
-19 98 4 57 9 73 27 88 23 18 85 24 107 10z"/>
<path d="M15618 9013 c-33 -8 -40 -74 -33 -302 6 -211 6 -217 30 -240 24 -24
25 -24 44 -7 18 17 21 33 23 164 l3 146 26 -40 c36 -53 127 -144 145 -144 8 0
14 -10 14 -24 0 -12 5 -37 11 -53 12 -35 48 -48 76 -28 15 11 16 19 5 77 -7
36 -12 147 -12 247 l0 181 -27 11 c-22 8 -30 6 -47 -10 -17 -18 -20 -34 -20
-150 -1 -72 -4 -131 -8 -131 -20 0 -130 185 -144 243 -6 25 -48 69 -63 66 -3
-1 -14 -3 -23 -6z"/>
<path d="M16567 8983 c-20 -45 -37 -130 -37 -185 0 -31 -4 -41 -20 -45 -25 -7
-26 -35 -1 -57 13 -12 22 -38 26 -76 8 -71 52 -146 90 -156 42 -10 92 5 130
40 64 60 40 95 -45 66 -30 -11 -58 -19 -61 -20 -6 0 -29 100 -29 124 0 7 20
10 54 8 69 -5 98 10 94 46 -4 35 -41 53 -101 50 l-49 -3 4 120 c3 115 2 120
-18 123 -15 2 -25 -6 -37 -35z"/>
<path d="M10855 8996 c-26 -19 -30 -105 -16 -324 10 -144 16 -180 30 -195 17
-17 18 -17 43 3 l26 20 -4 153 c-4 123 -3 148 7 132 7 -11 27 -38 44 -60 18
-22 35 -48 38 -58 4 -9 17 -22 31 -28 38 -18 73 14 79 71 2 25 14 65 25 90
l21 45 0 -152 c1 -91 6 -162 12 -177 16 -35 40 -42 60 -17 15 18 17 52 18 243
1 215 1 222 -21 245 -24 26 -64 30 -91 9 -10 -8 -38 -57 -61 -110 l-44 -96
-24 32 c-13 18 -44 68 -69 110 -46 82 -65 93 -104 64z"/>
<path d="M12946 8997 c-25 -18 -29 -105 -17 -321 8 -143 14 -182 27 -197 13
-15 21 -16 38 -7 11 6 24 16 28 22 4 6 5 79 1 161 l-6 150 45 -60 c25 -33 48
-68 51 -78 4 -9 18 -22 32 -29 22 -10 29 -8 50 12 14 13 25 34 25 47 0 30 29
121 41 129 5 3 9 -59 9 -140 0 -144 8 -189 36 -200 22 -8 42 3 47 27 3 12 6
117 7 233 0 199 -1 212 -21 237 -22 29 -62 35 -91 14 -18 -14 -81 -139 -92
-183 l-8 -29 -24 30 c-13 17 -46 67 -72 112 -49 86 -67 98 -106 70z"/>
<path d="M12372 8855 c-102 -56 -151 -199 -102 -295 55 -107 209 -132 304 -49
32 28 35 59 5 59 -11 0 -42 -7 -69 -16 -27 -9 -54 -14 -61 -12 -13 4 110 146
128 147 7 1 17 10 22 20 18 32 -6 76 -63 120 -44 34 -60 41 -97 40 -24 -1 -54
-7 -67 -14z m136 -99 l21 -25 -24 -15 c-14 -9 -28 -16 -32 -16 -5 0 -22 -11
-38 -25 -17 -13 -45 -36 -62 -50 l-33 -27 0 42 c0 49 32 113 64 128 38 19 81
14 104 -12z"/>
<path d="M13550 8848 c-45 -26 -68 -53 -91 -106 -23 -52 -25 -142 -5 -180 58
-112 215 -136 309 -49 35 33 35 57 1 57 -14 0 -33 -4 -42 -9 -9 -4 -34 -11
-55 -15 -36 -7 -37 -6 -25 14 19 31 113 126 132 133 10 4 16 18 16 41 0 27 -8
43 -37 71 -70 68 -136 82 -203 43z m141 -90 c25 -30 24 -32 -13 -50 -18 -8
-59 -36 -90 -62 -54 -44 -57 -45 -63 -25 -10 30 13 95 46 130 35 37 91 40 120
7z"/>
<path d="M14560 8853 c-67 -44 -101 -97 -115 -182 -18 -106 74 -211 185 -211
73 0 160 51 160 93 0 21 -8 21 -99 -3 -24 -6 -48 -9 -53 -8 -12 4 123 148 138
148 13 0 24 23 24 51 0 24 -63 94 -102 114 -40 19 -106 18 -138 -2z m139 -97
l22 -23 -25 -17 c-14 -9 -28 -16 -31 -16 -3 0 -30 -20 -61 -45 -60 -50 -74
-54 -74 -26 0 79 53 151 112 151 23 0 42 -8 57 -24z"/>
<path d="M16186 8860 c-40 -12 -94 -66 -117 -115 -47 -101 1 -230 102 -274 59
-26 104 -15 164 40 98 90 99 249 3 323 -39 29 -106 41 -152 26z m105 -121 c43
-55 28 -138 -32 -182 -24 -17 -29 -18 -56 -3 -67 34 -86 168 -29 209 22 16 99
0 117 -24z"/>
<path d="M11492 8829 c-111 -55 -163 -151 -138 -249 36 -138 175 -172 303 -74
33 25 53 25 53 -1 0 -8 13 -21 29 -29 26 -14 30 -14 45 3 23 25 22 61 -4 156
-12 44 -26 99 -31 123 -12 60 -27 85 -48 79 -10 -2 -26 2 -36 9 -33 24 -106
17 -173 -17z m175 -63 c3 -3 6 -34 7 -70 1 -56 -2 -68 -24 -91 -31 -33 -111
-75 -143 -75 -46 0 -74 52 -69 126 3 32 62 93 107 110 36 13 109 13 122 0z"/>
<path d="M13889 8833 c-10 -11 -15 -53 -17 -136 -4 -138 3 -200 24 -222 19
-19 29 -19 48 1 13 12 16 40 16 139 0 123 0 125 26 142 25 16 27 16 40 -2 23
-32 34 -86 34 -172 0 -101 11 -133 45 -133 33 0 40 28 40 156 l0 101 47 23
c26 13 50 21 54 18 5 -6 23 -173 24 -229 0 -39 31 -73 58 -65 30 10 45 65 39
139 -21 234 -76 293 -197 212 l-51 -35 -39 41 c-36 38 -42 41 -77 34 -21 -4
-43 -11 -49 -16 -7 -6 -16 -4 -24 6 -16 19 -24 19 -41 -2z"/>
<path d="M14974 8843 c-12 -2 -36 -20 -55 -39 -40 -42 -44 -92 -8 -130 23 -24
103 -54 145 -54 12 0 32 -8 44 -18 21 -17 21 -19 5 -35 -27 -28 -96 -22 -153
13 -27 17 -52 30 -55 30 -3 0 -10 -13 -15 -30 -10 -26 -8 -32 19 -54 42 -36
123 -58 179 -50 55 8 110 58 110 98 0 68 -46 107 -143 121 -26 4 -58 15 -70
25 -18 15 -19 20 -8 34 17 20 79 21 105 1 11 -8 30 -15 43 -15 31 0 31 41 1
70 -34 31 -89 44 -144 33z"/>
<path d="M18053 8839 c-44 -13 -83 -62 -83 -106 0 -50 44 -88 118 -103 67 -13
112 -29 112 -40 0 -5 -7 -16 -16 -24 -25 -26 -90 -20 -150 14 -51 29 -54 29
-64 11 -5 -11 -10 -26 -10 -35 0 -41 124 -91 199 -80 83 12 136 86 105 146
-20 39 -49 56 -130 74 -84 18 -103 33 -78 59 19 19 67 17 121 -6 43 -17 62 -2
45 35 -20 45 -107 74 -169 55z"/>
</g>
</svg>
